# xmcd
#
# Track frame offsets:
# 150
# 18477
# 40194
# 58446
# 76956
# 86962
# 106725
# 125966
# 138272
# 162109
# 178968
# 198265
# 222093
#
# Disc length: 3078 seconds
#
#
# Revision: 0
# Processed by: cddbd v1.5.1PL0 Copyright (c) Steve Scherf et al.
# Submitted via: FreeRIP 2.92 
#
DISCID=ba0c040d
DTITLE=Guy Forsyth - Love Songs: For And Against
DYEAR=2005
DGENRE=Blues
TTITLE0=Long Long Time
TTITLE1=Beautiful Mistake
TTITLE2=Brand New Day
TTITLE3=Mamma's Favorite
TTITLE4=On My Own
TTITLE5=Heart Shaped Hole
TTITLE6=Rise Up
TTITLE7=Take Advantage Of You
TTITLE8=Patients Blues
TTITLE9=105
TTITLE10=So Hard
TTITLE11=When It All Comes Down
TTITLE12=Shake It In A Circular Motion
EXTD=Pre-Release - Produced By Mark Addison
EXTT0=
EXTT1=
EXTT2=
EXTT3=
EXTT4=
EXTT5=
EXTT6=
EXTT7=
EXTT8=
EXTT9=
EXTT10=
EXTT11=
EXTT12=
PLAYORDER=
